<svg width="28" height="28" viewBox="0 0 28 28" fill="none" xmlns="http://www.w3.org/2000/svg">
<path d="M17.8033 25.9583H10.1966C4.46831 25.9583 2.01831 23.5083 2.01831 17.78V17.6283C2.01831 12.4483 4.05998 9.95166 8.63331 9.51999C9.09998 9.48499 9.54331 9.83499 9.58998 10.3133C9.63664 10.7917 9.28664 11.2233 8.79664 11.27C5.13331 11.6083 3.76831 13.335 3.76831 17.64V17.7917C3.76831 22.54 5.44831 24.22 10.1966 24.22H17.8033C22.5516 24.22 24.2316 22.54 24.2316 17.7917V17.64C24.2316 13.3117 22.8433 11.585 19.11 11.27C18.6316 11.2233 18.27 10.8033 18.3166 10.325C18.3633 9.84666 18.7716 9.48499 19.2616 9.53166C23.905 9.92832 25.9816 12.4367 25.9816 17.6517V17.8033C25.9816 23.5083 23.5316 25.9583 17.8033 25.9583Z" fill="#454242"/>
<path d="M14 18.3743C13.5217 18.3743 13.125 17.9777 13.125 17.4993V4.22266C13.125 3.74432 13.5217 3.34766 14 3.34766C14.4783 3.34766 14.875 3.74432 14.875 4.22266V17.4993C14.875 17.9777 14.4783 18.3743 14 18.3743Z" fill="#454242"/>
<path d="M17.9082 7.70034C17.6866 7.70034 17.4649 7.61867 17.2899 7.44367L13.9999 4.15367L10.7099 7.44367C10.3716 7.78201 9.81157 7.78201 9.47323 7.44367C9.1349 7.10534 9.1349 6.54534 9.47323 6.20701L13.3816 2.29867C13.7199 1.96034 14.2799 1.96034 14.6182 2.29867L18.5266 6.20701C18.8649 6.54534 18.8649 7.10534 18.5266 7.44367C18.3632 7.61867 18.1299 7.70034 17.9082 7.70034Z" fill="#454242"/>
</svg>
