<svg width="58" height="58" viewBox="0 0 58 58" fill="none" xmlns="http://www.w3.org/2000/svg">
<path d="M36.8782 53.7707H21.1215C9.25566 53.7707 4.18066 48.6957 4.18066 36.8298V36.5157C4.18066 25.7857 8.40983 20.614 17.8832 19.7198C18.8498 19.6473 19.7682 20.3723 19.8648 21.3632C19.9615 22.354 19.2365 23.2482 18.2215 23.3448C10.6332 24.0457 7.80566 27.6223 7.80566 36.5398V36.854C7.80566 46.6898 11.2857 50.1698 21.1215 50.1698H36.8782C46.714 50.1698 50.194 46.6898 50.194 36.854V36.5398C50.194 27.574 47.3182 23.9973 39.5848 23.3448C38.594 23.2482 37.8448 22.3782 37.9415 21.3873C38.0382 20.3965 38.884 19.6473 39.899 19.744C49.5173 20.5657 53.819 25.7615 53.819 36.564V36.8782C53.819 48.6957 48.744 53.7707 36.8782 53.7707Z" fill="#454242"/>
<path d="M29 38.0622C28.0092 38.0622 27.1875 37.2405 27.1875 36.2497V8.74805C27.1875 7.75721 28.0092 6.93555 29 6.93555C29.9908 6.93555 30.8125 7.75721 30.8125 8.74805V36.2497C30.8125 37.2405 29.9908 38.0622 29 38.0622Z" fill="#454242"/>
<path d="M37.0958 15.9492C36.6366 15.9492 36.1774 15.78 35.8149 15.4175L28.9999 8.6025L22.1849 15.4175C21.4841 16.1183 20.3241 16.1183 19.6233 15.4175C18.9224 14.7167 18.9224 13.5567 19.6233 12.8558L27.7191 4.76C28.4199 4.05917 29.5799 4.05917 30.2808 4.76L38.3766 12.8558C39.0774 13.5567 39.0774 14.7167 38.3766 15.4175C38.0383 15.78 37.555 15.9492 37.0958 15.9492Z" fill="#454242"/>
</svg>
