<svg width="762" height="594" viewBox="0 0 762 594" fill="none" xmlns="http://www.w3.org/2000/svg">
<path fill-rule="evenodd" clip-rule="evenodd" d="M397.433 379.844C387.493 379.715 377.554 379.586 367.615 379.457C371.297 381.856 374.98 384.256 378.663 386.654C404.669 403.6 430.676 420.545 456.683 437.49C450.487 441.617 444.291 445.744 438.095 449.87C431.899 453.997 425.703 458.124 419.507 462.251C421.701 464.572 423.895 466.893 426.09 469.215C428.284 471.536 430.478 473.857 432.673 476.179L428.6 478.494C425.852 480.056 423.104 481.618 420.356 483.18C417.061 485.053 413.765 486.926 410.47 488.8C406.237 491.205 402.005 493.611 397.773 496.017L389.768 500.567C389.611 500.656 389.438 500.77 389.256 500.889C388.711 501.246 388.087 501.655 387.593 501.611C386.892 501.547 385.789 500.67 384.919 499.979C384.562 499.695 384.244 499.443 384.01 499.29C381.466 497.637 378.926 495.978 376.389 494.313C368.58 489.194 360.8 484.032 353.05 478.824C334.052 466.054 315.095 453.132 296.907 439.224C288.504 432.799 280.703 426.139 274.138 417.78C266.915 408.582 260.95 398.427 255.706 387.995C251.29 379.214 247.38 370.174 243.912 360.978C243.577 360.09 243.103 359.052 242.596 357.941C241.299 355.099 239.785 351.783 239.824 349.287C239.843 348.003 240.618 346.332 241.304 344.851C241.614 344.18 241.908 343.548 242.104 343.008C242.849 340.962 243.594 338.914 244.339 336.867C245.084 334.819 245.83 332.773 246.575 330.725C246.821 330.047 247.145 329.316 247.48 328.561C248.18 326.978 248.926 325.293 249.103 323.778C249.32 321.933 248.777 319.624 248.277 317.495C248.044 316.507 247.821 315.558 247.687 314.711C247.635 314.386 247.599 313.912 247.557 313.373C247.433 311.763 247.264 309.573 246.526 309.023C246.055 308.673 244.647 308.702 243.6 308.723C243.187 308.732 242.832 308.739 242.61 308.722C238.393 308.398 234.178 308.074 229.962 307.75C227.783 307.583 225.604 307.415 223.425 307.248L171.98 303.294C170.424 303.174 168.805 303.122 167.168 303.068C163.838 302.96 160.43 302.849 157.324 302.168C153.824 301.401 151.636 298.597 150.59 295.318C147.449 285.472 144.48 275.47 142.568 265.304C140.718 255.479 142.504 247.834 146.537 238.743C150.067 230.786 154.236 222.894 158.977 215.579C160.127 213.804 160.305 213.842 161.792 214.16C162.073 214.219 162.401 214.289 162.791 214.358C172.862 216.151 182.932 217.945 193.002 219.738C210.043 222.774 227.086 225.809 244.127 228.843C261.169 231.878 278.211 234.914 295.253 237.948C307.27 240.089 319.288 242.229 331.305 244.368C331.844 244.465 332.542 244.524 333.297 244.589C334.996 244.734 336.977 244.902 338.049 245.57C338.619 245.926 339.085 246.783 339.493 247.532C339.653 247.826 339.804 248.103 339.949 248.328L340.216 248.742C342.352 252.05 344.488 255.357 346.624 258.665C356.192 273.482 365.978 288.155 375.764 302.829C378.753 307.311 381.743 311.793 384.725 316.278C392.998 328.719 401.271 341.16 409.544 353.601C415.446 362.478 421.349 371.354 427.252 380.231C417.312 380.102 407.373 379.973 397.433 379.844ZM478.369 342.316C504.874 342.252 532.205 341.041 558.143 335.352C577.902 331.019 597.744 322.088 613.908 309.817C610.519 322.719 605.782 338.859 595.775 348.207C592.264 351.487 587.67 353.718 583.345 355.817C582.983 355.993 582.622 356.168 582.265 356.343C575.459 359.663 568.478 362.633 561.452 365.454C560.432 365.863 559.407 366.276 558.38 366.691C546.905 371.321 534.935 376.15 522.807 378.368C519.139 379.038 517.271 378.381 514.217 376.181C509.322 372.656 504.875 368.454 500.494 364.313C500.284 364.115 500.075 363.918 499.866 363.72C492.516 356.778 485.366 349.612 478.369 342.316Z" fill="#FF5678"/>
<path fill-rule="evenodd" clip-rule="evenodd" d="M343.322 37.5427C349.708 40.3863 353.079 48.254 356.432 53.9436C360.456 60.7714 364.102 67.9218 366.157 75.61C368.264 83.488 368.556 92.1256 367.622 100.208C367.211 103.765 366.248 107.001 365.23 110.404C364.142 114.04 365.837 116.12 368.418 118.685C373.781 124.011 380.533 128.098 384.513 134.661C387.885 140.221 391.805 141.25 398.161 141.488C413.948 142.08 429.419 141.592 445.059 144.609C449.03 145.375 452.976 146.313 456.883 147.36C458.166 147.703 459.509 148.304 460.831 148.425C462.738 148.598 463.064 147.84 464.488 147.108C470.755 143.885 478.709 146.981 484.974 148.749C500.787 153.213 515.707 159.289 530.04 167.34C545.517 176.034 562.016 182.783 577.35 191.736C592.164 200.384 605.473 211.269 619.29 221.365C633.341 231.634 646.669 242.745 659.663 254.315C672.222 265.496 685.207 276.472 696.441 289.018C706.683 300.457 714.774 313.999 720.202 328.389C722.013 333.192 720.898 336.217 715.235 334.632C714.734 339.491 711.108 341.521 706.512 340.483C707.924 344.559 711.147 350.081 709.303 354.467C706.85 360.299 699.825 356.054 696.38 353.782C696.754 358.47 698.75 366.081 694.874 369.865C688.868 375.727 678.731 368.256 674.476 363.875C663.637 352.71 656.704 338.895 647.08 326.85C635.152 311.923 621.715 297.849 608.229 284.335C607.165 283.268 595.162 270.401 593.442 272.15C598.679 280.814 602.864 290.351 610.186 297.548C613.662 292.671 616.18 295.075 616.833 299.972C617.617 305.859 618.491 312.058 617.404 317.958C615.268 329.571 607.93 340.616 600.22 349.312C592.154 358.408 582.14 365.334 571.397 370.909C565.315 374.065 559.215 377.023 552.672 379.095C549.742 380.023 546.808 381.1 543.798 381.744C540.904 382.364 537.775 382.321 535.097 383.724C559.088 395.166 585.63 399.987 609.677 411.135C615.481 413.825 627.136 420.818 621.247 428.679C616.691 434.761 606.338 434.976 599.542 436.189C604.542 440.904 603.797 445.281 597.225 447.848C594.585 448.878 591.833 449.357 589.018 449.43C587.106 449.48 583.803 448.8 582.258 450.301C588.217 453.029 596.34 452.863 601.237 457.655C606.233 462.544 600.266 466.477 595.801 468.363C589.928 470.842 581.852 473.457 575.877 470.467C571.155 468.104 566.795 468.617 561.574 467.995C556.189 467.355 550.867 466.203 545.673 464.655C525.896 458.759 507.685 447.849 490.22 437.117C472.771 426.395 456.498 414.213 441.449 400.313C437.737 396.883 434.645 392.802 430.851 389.482C426.858 385.988 422.677 385.674 417.568 385.732C405.955 385.864 394.363 383.799 382.756 385.16C399.439 397.723 417.069 408.788 434.62 420.071C441.298 424.365 448.318 430.09 456.169 431.961C459.613 432.783 467.003 433.328 468.147 437.57C468.984 440.666 466.333 441.186 464.746 442.866C462.446 445.299 465.684 446.112 468.057 447.12C471.047 448.39 473.777 448.799 477.035 448.464C482.021 447.949 485.933 448.12 490.579 450.254C497.881 453.606 505.719 455.411 513.039 458.689C516.071 460.047 516.868 464.094 518.331 466.842C520.631 471.16 523.289 475.272 525.898 479.408C530.815 487.204 535.058 495.224 542.036 501.443C548.151 506.894 554.959 511.721 561.601 516.513C571.973 523.999 585.167 533.255 581.834 547.939C578.538 562.455 563.478 560.894 552.003 558.302C547.173 557.211 540.573 554.16 535.704 555.594C531.502 556.832 528.608 557.016 524.249 556.028C519.195 554.881 514.109 554.136 508.989 553.345C498.255 551.687 487.432 548.951 477.175 545.366C472.255 543.646 468.147 541.35 464.272 537.835C463.121 536.792 462.284 535.312 460.753 535.324C459.452 535.335 457.439 537.643 456.432 538.443C453.254 540.972 449.738 543.084 446.11 540.076C443.795 538.156 441.734 533.977 445.083 531.999C447.65 530.483 452.339 532.221 454.18 529.353C456.108 526.351 451.798 521.995 450.449 519.555C446.377 522.316 440.384 527.902 435.661 523.279C431.877 519.577 436.087 517.329 439.576 516.145C443.889 514.679 448.88 514.868 446.682 509.106C445.433 505.834 443.434 502.901 443.113 499.329C442.869 496.614 443.653 494.001 443.672 491.307C443.706 486.493 438.525 482.346 434.011 481.206C431.255 480.509 430.436 482.862 428.743 484.665C426.255 487.316 423.077 489.3 419.908 491.03C414.71 493.866 409.253 496.118 403.805 498.407C400.195 499.923 393.814 501.91 396.392 506.507C400.164 513.235 391.323 510.015 388.135 508.488C380.72 504.937 373.232 501.546 365.91 497.8C350.893 490.116 337.076 480.627 323.812 470.242C310.791 460.046 298.077 449.215 286.247 437.653C280.516 432.05 275.038 426.159 270.159 419.796C264.918 412.962 260.505 405.552 255.164 398.786C249.624 391.764 244.147 384.952 240.577 376.668C237.27 368.993 233.516 360.426 233.457 351.994C233.391 342.679 233.428 334.312 236.511 325.376C237.798 321.648 239.343 317.766 241.585 314.506C242.229 313.569 245.612 310.364 244.919 309.087C244.958 309.159 237.233 310.338 236.425 310.415C231.297 310.905 226.138 310.026 221.03 309.55C205.924 308.141 190.675 308.669 175.625 306.597C169.951 305.815 163.794 306.636 158.256 305.196C155.64 304.517 154.995 303.02 153.073 301.795C152.195 301.235 151.257 301.42 150.44 300.644C149.485 299.734 149.278 298.42 148.855 297.234C146.596 290.896 142.789 285.238 140.552 278.888C138.037 271.746 138.151 264.345 138.334 256.88C134.599 257.177 130.675 257.202 127.17 255.691C124.342 264.572 112.16 264.412 104.671 263.738C95.3188 262.897 84.3533 262.017 79.6134 252.639C74.043 241.619 74.4109 228.239 73.7371 216.212C72.9456 202.086 72.7202 187.75 73.4149 173.616C74.0058 161.595 76.7476 149.116 84.5276 139.576C91.392 131.158 103.268 126.231 112.609 134.087C119.63 139.992 122.695 150.627 123.155 159.485C123.388 163.992 123.178 168.04 128.732 166.791C130.867 166.31 132.808 165.533 134.383 167.722C135.771 169.649 135.134 172.436 133.376 173.877C131.783 175.185 128.683 174.963 127.592 176.907C126.51 178.835 128.221 181.922 130.27 182.314C132.603 182.761 134.4 179.765 136.75 181.155C138.903 182.43 137.779 184.81 136.336 186.205C134.629 187.856 132.985 188.2 134.205 190.813C135.141 192.818 137.014 194.153 137.854 196.279C139.928 201.522 140.613 209.057 138.306 214.331C142.309 214.776 151.986 219.506 155.135 215.68C156.277 214.292 156.413 212.253 157.648 210.837C159.1 209.17 161.13 208.462 163.279 208.193C167.874 207.619 172.576 209.016 177.039 209.916C184.439 211.409 191.883 212.717 199.316 214.036C214.271 216.691 229.364 218.538 244.282 221.391C259.168 224.237 273.9 227.837 288.622 231.422C296.343 233.301 304.027 235.414 311.805 237.042C319.074 238.562 326.648 239.683 333.414 242.9C332.076 234.635 328.344 227.039 326.017 219.049C323.624 210.831 322.951 202.627 324.302 194.165C325.541 186.411 327.375 178.875 331.335 172.022C332.936 169.251 334.698 166.491 337.004 164.257C338.644 162.667 340.953 161.346 342.249 159.451C343.528 157.581 343.256 157.147 340.953 156.285C339.673 155.806 338.511 155.661 337.297 154.989C336.181 154.372 335.22 153.251 333.908 153.037C330.882 152.543 326.457 155.474 323.684 156.517C319.899 157.94 315.989 159.222 311.949 159.655C298.69 161.077 282.966 153.394 273.876 144.085C270.843 140.979 263.881 133.835 266.71 129.097C268.203 126.596 270.873 127.191 273.114 126.055C276.624 124.276 274.4 121.325 272.719 118.982C268.138 112.602 265.066 105.3 261.787 98.2005C258.449 90.975 253.873 84.5155 250.122 77.5212C247.429 72.5025 244.307 66.8888 243.07 61.3037C241.558 54.4829 246.179 53.5188 251.828 52.5415C269.696 49.4495 287.289 45.2951 304.996 41.427C312.055 39.8857 319.148 38.3188 326.252 37.0041C331.789 35.9797 338.005 35.1765 343.322 37.5427ZM500.153 463.053C490.939 463.527 481.668 465.571 481.373 476.313C482.49 496.695 495.758 511.931 509.775 525.45C513.312 528.861 516.773 532.477 520.614 535.551C522.874 537.359 525.338 538.187 527.783 539.62C528.382 539.971 529.418 541.148 529.975 541.326C531.296 541.754 531.411 541.274 532.699 541.138C535.509 540.842 536.028 542.798 538.164 544.398C542.217 547.434 549.491 546.99 554.251 547.939C558.646 548.816 576.142 555.148 575.355 546.028C574.586 537.117 565.074 532.788 558.37 528.808C549.027 523.262 539.396 517.258 531.53 509.699C524.051 502.512 519.169 492.677 514.146 483.726C511.015 478.148 510.149 473.418 509.245 467.184C508.862 464.547 508.824 463.685 506.241 463.24C504.245 462.896 502.168 462.949 500.153 463.053ZM468.095 461.572C462.772 463.295 458.751 467.56 456.101 472.384C454.745 474.853 453.968 477.343 453.519 480.104C452.948 483.618 451.635 487.371 452.618 490.903C454.401 497.314 459.079 504.314 462.754 509.815C466.886 516.001 472.252 522.945 478.773 526.737C485.049 530.388 492.628 531.36 498.448 535.866C497.927 533.388 495.601 531.559 493.776 530.014C491.115 527.761 488.787 525.525 486.526 522.843C481.526 516.913 477.37 510.491 474.707 503.175C472.126 496.086 470.648 488.106 470.977 480.549C471.134 476.952 471.753 473.132 473.307 469.851C474.345 467.658 476.186 465.793 476.981 463.487C478.801 458.201 470.75 460.712 468.095 461.572ZM351.367 286.352C343.936 287.195 336.568 288.621 329.083 289.312C313.949 290.708 298.242 291.534 284.528 298.756C264.575 309.265 241.595 332.586 248.515 357.152C256.69 386.171 274.167 412.411 296.048 432.946C310.017 446.056 325.316 457.869 340.662 469.313C355.506 480.383 372.678 487.644 387.981 497.994C389.018 482.743 398.609 468.758 409.951 459.056C416.046 453.843 422.442 448.848 429.276 444.638C432.634 442.569 436.111 440.821 439.652 439.093C442.339 437.782 445.309 435.831 448.38 435.685C448.331 433.436 442.685 432.606 441.128 432.077C435.753 430.251 430.595 427.454 425.616 424.744C414.777 418.845 404.762 411.646 394.732 404.493C389.829 400.997 384.849 397.606 379.999 394.036C375.632 390.821 371.76 386.64 367.067 383.903C362.24 381.088 356.533 380.5 351.147 379.462C344.677 378.215 338.311 376.734 331.81 375.64C320.953 373.813 310.706 367.426 300.698 363.073C297.333 361.609 292.199 360.339 289.631 357.568C287.303 355.057 287.911 351.179 290.895 349.459C296.026 346.5 304.577 350.358 309.429 352.268C318.404 355.8 327.317 358.962 336.841 360.772C349.887 363.251 362.284 367.891 375.348 370.32C389.435 372.939 403.556 375.805 417.878 376.77C414.369 369.823 408.551 364.05 404.019 357.766C398.82 350.557 393.628 343.343 388.474 336.101C379.39 323.334 369.259 310.506 362.354 296.395C359.987 291.557 357.657 285.638 351.367 286.352ZM418.829 472.372C416.761 472.702 415.2 474.768 413.794 476.134C409.442 480.36 405.182 484.545 401.639 489.5C407.122 487.186 411.593 483.154 416.878 480.504C418.783 479.548 425.508 477.419 424.153 474.757C423.391 473.262 420.351 472.129 418.829 472.372ZM443.99 455.349C438.622 459.009 433.034 462.282 427.373 465.463C431.343 466.971 435.308 469.051 438.566 471.783C440.056 473.033 443.119 476.69 445.274 475.771C447.277 474.917 448.365 469.966 449.335 468.179C451.817 463.605 455.29 459.284 459.024 455.677C453.414 451.926 449.654 451.488 443.99 455.349ZM398.68 256.114C394.383 257.308 390.121 258.614 385.827 259.818C377.256 262.222 368.496 264.231 359.545 264.231C358.327 266.471 361.816 270.123 362.888 271.831C365.702 276.315 368.104 281.124 370.656 285.765C376.064 295.605 381.965 305.063 388.331 314.309C394.762 323.652 400.572 333.437 407.158 342.666C413.533 351.6 420.545 360.279 427.451 368.809C454.356 402.043 491.854 424.963 528.709 445.552C539.039 451.323 549.802 456.407 561.242 459.559C565.966 460.86 570.784 461.962 575.589 462.932C578.818 463.582 584.191 465.041 587.164 462.954C577.829 459.259 565.596 457.833 558.056 450.683C553.388 446.256 558.507 442.954 563.267 442.131C572.476 440.539 582.021 444.548 591.061 441.947C588.645 437.518 581.7 437.729 577.475 436.592C572.133 435.154 571.935 432.457 577.021 430.624C583.281 428.366 590.497 429.591 597.02 429.175C600.204 428.972 613.549 428.441 609.519 422.33C606.346 417.523 598.624 416.175 593.569 414.401C586.478 411.914 579.589 408.031 572.367 406.103C565.303 404.218 558.105 403.059 551.041 401.068C543.669 398.991 536.409 396.682 529.403 393.564C515.896 387.554 503.373 379.394 491.966 370.026C480.212 360.373 469.908 349.31 460.427 337.447C455.438 331.205 450.692 324.783 445.839 318.438C441.152 312.311 435.852 306.472 432.1 299.708C427.951 292.227 422.573 285.399 418.276 277.944C415.948 273.904 413.442 269.942 411.272 265.815C409.729 262.881 408.678 258.579 406.591 256.029C404.629 253.633 401.2 255.413 398.68 256.114ZM200.233 350.913C201.673 352.228 201.434 352.77 201.157 354.439C200.589 357.861 199.962 361.219 199.699 364.691C198.796 376.565 200.472 388.88 202.324 400.608C204.173 412.31 208.617 423.121 215.466 432.799C222.102 442.177 230.111 449.648 240.664 454.249C242.476 455.039 249.65 457.938 249.186 460.612C248.837 462.623 245.113 461.485 243.774 461.198C224.805 457.138 208.73 440.001 199.144 424.049C195.175 417.445 192.622 410.731 190.43 403.432C190.11 402.366 185.516 387.264 187.068 387.075C185.728 376.617 185.328 363.903 190.275 354.223C192.123 350.608 196.453 347.465 200.233 350.913ZM167.139 353.163C165.408 361.046 165.981 369.089 166.363 377.075C166.432 378.528 167.264 383.012 164.856 382.927C163.155 382.866 161.799 378.525 161.381 377.412C158.852 370.655 157.954 363.045 159.217 355.923C159.616 353.669 160.219 350.933 162.7 350.15C164.859 349.469 167.331 350.686 167.139 353.163ZM610.405 316.767C609.338 317.282 608.868 318.262 608.55 319.337C600.205 326.443 590.388 333.322 580.631 338.336C571.915 342.815 561.822 344.703 552.308 346.729C530.552 351.362 508.888 353.234 487.189 347.237C496.056 355.411 504.097 366.273 515.275 371.48C520.829 374.068 526.977 372.507 532.576 370.868C539.447 368.857 546.359 366.803 553.008 364.136C565.572 359.099 579.009 353.525 589.574 344.89C594.257 341.062 598.075 336.331 601.435 331.331C603.36 328.468 604.989 325.405 606.937 322.562C608.059 320.923 610.517 318.905 610.405 316.767ZM517.702 171.405C517.383 175.448 515 178.844 512.898 182.163C511.468 184.42 508.683 187.143 510.004 189.703C511.572 192.742 516.569 194.683 519.159 196.761C522.994 199.839 526.585 203.201 530.116 206.617C536.452 212.748 543.012 218.69 549.212 224.952C555.103 230.9 560.82 236.961 568.251 241.017C584.565 249.923 598.928 262.366 613.184 274.198C627.718 286.26 642.074 298.94 654.686 313.031C661.435 320.571 667.044 328.848 671.855 337.733C674.329 342.304 676.98 346.774 679.459 351.343C680.556 353.364 681.794 355.327 682.792 357.401C683.533 358.941 684.015 361.436 685.385 362.577C688.095 356.569 683.867 348.621 681.415 343.209C679.74 339.509 678.096 335.795 676.442 332.085C675.281 329.483 672.869 326.341 672.737 323.437C672.415 316.377 681.515 321.457 684.011 323.72C690.188 329.322 693.751 337.744 698.123 344.694C699.151 339.16 688.125 330.616 692.69 325.793C696.311 321.968 702.985 330.928 705.011 333.355C706.401 326.513 702.84 319.82 699.117 314.344C694.97 308.24 690.176 302.436 685.263 296.94C673.779 284.093 660.655 272.658 647.672 261.363C634.756 250.126 621.458 239.347 608.217 228.498C595.358 217.963 582.306 207.429 567.933 198.994C559.874 194.265 551.421 190.309 543.195 185.895C534.579 181.272 526.411 175.858 517.702 171.405ZM405.374 155.82C404.999 155.914 402.825 156.175 402.662 156.366C401.953 157.2 402.898 159.897 403.734 160.382C400.851 162.535 397.612 164.495 393.947 164.83C396.252 167.09 400.633 171.044 399.951 174.69C399.013 179.704 392.982 176.188 390.54 174.67C386.62 172.234 382.614 169.649 379.744 165.975C377.921 163.644 377.301 161.172 375.937 158.661C375.197 157.297 375.627 157.05 373.987 156.955C372.113 156.849 368.906 158.625 367.169 159.331C364.486 160.422 361.87 161.681 359.346 163.103C354.692 165.728 350.334 168.914 346.517 172.657C338.612 180.404 333.259 190.582 332.58 201.727C338.19 201.062 343.678 198.646 348.405 195.631C351.772 193.484 355.206 190.962 355.8 197.019C356.031 199.378 355.37 204.872 353.953 206.697C352.629 208.402 352.057 207.02 350.683 208.042C349.095 209.226 349.934 210.93 349.934 212.592C349.168 211.95 348.403 211.308 347.638 210.666C346.253 212.474 347.82 211.506 348.343 212.599C348.648 213.237 346.562 215.072 346.145 215.397C345.283 216.07 344.807 215.513 343.821 216.48C343.187 217.102 342.504 218.498 341.817 219.275C338.266 223.289 342.968 229.58 344.827 233.837C346.204 236.989 347.705 240.079 349.138 243.204C350.186 245.491 350.752 248.206 352.145 250.314C354.908 254.498 361.241 252.212 365.374 251.7C370.981 251.004 376.487 250.293 382.1 249.766C385.39 249.457 389.107 247.544 384.883 245.069C380.689 242.613 366.204 242.148 366.11 235.83C366.011 229.114 375.351 227.997 380.036 228.574C386.888 229.418 391.316 231.146 396.003 236.312C394.953 226.46 387.956 218.311 386.394 208.426C385.97 205.741 384.666 189.192 391.125 196.341C394.584 200.171 397.323 205.966 399.88 210.394C403.75 217.098 407.122 224.065 410.674 230.937C414.064 237.495 419.029 243.797 421.403 250.774C422.739 254.698 424.603 262.947 428.843 264.949C431.559 266.233 436.145 264.553 438.95 264.144C440.683 263.891 442.374 263.643 443.861 262.644C444.631 262.126 445.392 260.784 446.364 260.634C449.164 260.202 449.887 264.476 449.696 266.444C449.402 269.478 448.007 270.265 445.174 270.618C449.95 272.956 442.592 280.268 441.301 283.183C441.233 283.034 440.395 280.985 439.773 280.987C438.535 280.991 443.565 290.884 443.944 291.572C446.582 296.347 449.895 300.64 453.099 305.041C454.94 307.57 457.591 313.554 461.337 312.988C463.412 312.676 467.723 308.408 469.353 311.334C470.824 313.973 466.281 316.805 465.597 318.903C464.45 322.423 468.765 326.124 471.308 327.969C478.048 332.86 486.787 334.015 494.762 335.491C493.238 333.438 489.919 332.32 489.853 329.381C489.808 327.382 491.222 326.291 490.266 324.116C489.48 322.325 487.507 321.284 486.92 319.364C486.272 317.247 487.293 314.842 488.458 313.094C493.394 305.68 504.42 308.765 510.885 312.133C510.408 312.343 510.012 312.646 509.697 313.043L509.621 313.144L509.638 313.132C510.468 312.625 514.065 314.216 514.513 314.538C515.93 315.558 517.84 317.935 518.819 319.408C521.968 324.148 522.419 329.927 520.783 335.301C540.499 335.301 559.074 330.051 576.718 321.682C580.748 319.772 584.707 318.549 588.524 316.144C592.446 313.675 596.172 310.933 600.024 308.363C603.642 305.948 603.315 304.498 600.891 301.064C597.941 296.886 595.341 292.432 592.066 288.491C591.563 289.582 591.367 291.767 590.292 292.438C589.103 293.179 588.013 291.706 587.212 292.264C587.283 292.214 584.752 296.143 584.345 295.164C585.4 297.695 581.177 296.078 580.429 295.609C580.603 297.982 578.63 300.024 577.522 296.853C574.511 299.605 567.372 297.086 571.222 292.842C573.123 290.746 575.192 289.633 576.387 286.897C577.724 283.836 578.191 280.371 578.36 277.062C578.756 269.26 574.53 265.617 569.233 260.558C566.275 257.733 563.186 255.052 560.143 252.321C557.468 249.92 555.154 246.948 552.347 244.722C550.331 243.124 548.722 242.665 546.766 244.052C545.96 244.624 545.697 245.35 544.662 245.901C543.334 246.608 541.365 247.045 539.884 247.229C532.44 248.155 523.823 245.606 517.002 242.859C515.134 242.107 514.239 240.883 512.622 239.952C511.599 239.363 510.728 239.72 509.643 239.016C506.807 237.179 506.949 234.229 509.011 231.932C513.842 226.551 520.78 231.392 525.717 227.046C531.868 221.631 521.613 214.144 517.47 210.83C514.155 208.177 511.306 207.603 507.254 206.906C506.405 206.76 500.776 205.137 502.745 207.47C498.372 207.357 496.221 207.375 492.7 210.103C491.776 210.818 490.548 211.494 490.294 212.714C490.16 213.358 491.487 213.487 491.49 213.481C491.311 213.914 489.975 214.699 489.782 214.837C492.035 215.104 491.45 219.52 490.869 219.545L490.835 219.541L490.901 219.599C491.884 220.529 489.665 221.962 488.913 222.202C486.776 222.886 484.748 221.401 483.319 219.917C480.12 216.597 477.798 210.949 478.003 206.346C478.29 199.887 482.536 196.142 486.038 191.299C488.66 187.677 484.765 185.75 482.054 183.476C478.736 180.696 474.224 177.278 473.133 172.849C472.139 168.814 474.894 167.434 478.424 168.647C483.195 170.286 487.056 174.504 491.284 177.143C495.037 179.485 499.774 184.268 504.359 184.541C503.518 181.551 499.351 181.868 497.74 179.646C495.611 176.711 498.918 175.403 501.419 175.74C503.361 176 508.901 180.107 508.757 175.372C508.68 172.835 504.444 171.985 502.6 171.252C493.229 167.525 483.631 164.983 473.693 163.257C470.472 162.698 469.648 163.09 468.091 165.995C467.563 166.982 465.664 171.521 464.623 168.512C463.261 170.978 462.864 173.605 459.904 174.597C456.137 175.859 451.294 173.992 447.824 172.544C444.845 171.301 442.014 169.559 440.102 166.901C439.151 165.581 438.458 164.114 438.009 162.551C437.628 161.224 437.808 159.049 437.119 157.844C435.967 155.828 433.222 156.263 431.102 156.062C426.37 155.612 421.697 155.206 416.94 155.15C412.988 155.105 409.214 154.865 405.374 155.82ZM508.259 332.929C506.746 333.471 509.434 335.281 510.322 335.067C509.958 334.481 509.354 332.538 508.259 332.929ZM509.621 313.144L509.58 313.176C509.528 313.223 509.493 313.283 509.477 313.358C509.511 313.302 509.547 313.249 509.583 313.196L509.621 313.144ZM539.894 265.609C541.265 266.759 540.712 269.422 541.649 271.058C544.16 275.437 548.684 279.757 552.946 282.403C557.538 285.251 559.71 288.947 560.835 294.107C561.068 295.173 561.77 296.653 561.427 297.757C561.107 298.789 559.947 299.132 559.591 300.051C559.428 300.471 560.111 303.723 560.028 303.733C559.632 303.781 558.476 302.145 558.483 302.153C558.026 303.288 558.184 304.577 556.951 305.184L556.8 305.251L556.82 305.265C557.127 305.503 558.531 306.667 558.196 306.923C557.729 307.279 556.587 307.035 556.005 307.242C555.086 307.57 554.423 308.388 553.538 308.769C551.166 309.79 548.43 309.475 545.926 309.115C540.652 308.358 534.717 306.473 530.904 302.569C526.286 297.841 527.382 292.941 526.965 287.637C526.497 281.687 530.793 272.667 534.244 268.054C535.422 266.478 537.781 263.84 539.894 265.609ZM160.5 219.313C160.201 220.017 160.499 221.116 160.324 221.889C159.971 223.455 159.061 224.826 158.186 226.141C156.548 228.601 154.9 230.856 153.782 233.632C151.038 240.447 148.493 247.792 147.179 255.017C144.36 270.53 153.772 283.324 154.285 298.433C158.608 293.886 165.181 293.669 171.038 293.656C178.831 293.639 186.553 293.966 194.318 294.648C209.171 295.952 224.355 296.481 238.433 301.906C239.983 302.503 241.145 302.761 242.701 303.087C244.41 303.445 243.505 302.646 244.755 303.657C245.091 303.929 245.225 304.911 245.577 305.255C247.395 307.033 248.484 305.825 250.025 303.918C254.263 298.67 258.492 293.9 263.944 289.822C275.559 281.131 288.57 277.119 302.888 275.826C311.095 275.086 319.108 274.659 327.35 274.738C335.22 274.814 343.529 274.958 350.984 277.772C349.13 272.47 345.963 267.719 343.409 262.745C342.169 260.33 341.019 257.791 339.442 255.569C338.057 253.615 335.965 252.019 335.005 249.788C334.834 250.236 334.663 250.684 334.491 251.131C319.352 246.799 303.74 244.465 288.218 241.988C272.626 239.498 257.228 236.049 241.67 233.396C233.859 232.063 226.018 231.262 218.15 230.369C210.576 229.511 203.274 227.831 195.806 226.403C188.243 224.957 180.882 223.205 173.446 221.213C170.327 220.379 167.376 219.226 164.341 218.221C161.921 217.42 161.371 217.249 160.5 219.313ZM495.285 246.816C495.738 248.671 494.292 251.063 493.829 252.824C493.304 254.821 492.165 255.622 491.571 257.438C491.055 259.015 491.985 267.38 487.948 264.882C488.072 265.483 488.736 266.306 488.804 266.841C488.891 267.507 488.242 268.527 488.43 269.102C488.6 269.62 490.373 271.136 490.803 272C492.499 275.395 493.697 279.304 494.532 283.002C495.403 286.858 496.461 292.2 493.265 294.862C492.496 295.501 491.827 295.673 491.039 296.441C490.947 297.152 490.622 297.739 490.065 298.202C489.76 298.288 489.514 298.212 489.331 297.975C488.357 298.503 488.681 296.286 487.536 298.44C487.26 298.96 487.759 300.743 487.512 300.56C487.062 300.23 485.708 298.817 485.269 298.791C484.286 300.127 484.308 298.766 483.27 298.957C483.229 299.511 482.929 299.816 482.368 299.871C481.93 299.771 481.494 299.669 481.057 299.569C478.413 299.584 474.509 298.476 471.971 297.776C467.127 296.44 463.67 293.109 462.619 288.064C460.43 277.553 469.279 264.413 475.605 256.771C477.766 254.16 492.942 237.213 495.285 246.816ZM537.534 280.678C537.466 281.561 537.739 282.88 536.746 282.978C536.791 281.982 536.372 280.706 537.534 280.678ZM468.603 279.181C469.054 281.726 469.158 280.273 468.133 282.023C467.789 280.993 467.945 280.046 468.603 279.181ZM541.956 275.9C542.35 276.389 543.856 277.709 542.559 278.047C541.424 278.342 541.908 276.503 541.956 275.9ZM487.378 258.258C486.862 260.996 488.416 260.341 490.555 259.843C489.496 259.315 488.436 258.786 487.378 258.258ZM91.0234 147.786C80.7798 156.568 80.4707 171.923 80.7937 184.284C81.2328 201.078 82.2529 217.919 83.8778 234.64C84.612 242.195 86.769 246.042 94.2337 248.574C102.32 251.316 111.03 250.785 119.418 250.299C117.814 237.84 114.675 221.449 127.184 213.158C128.329 212.399 129.376 211.839 130.769 211.767C131.69 211.72 133.009 212.553 133.883 212.127C135.65 211.264 134.639 208.821 134.06 207.438C132.301 203.235 128.945 199.871 126.222 196.305C122.801 191.828 119.863 191.949 114.756 192.501C112.72 192.722 104.71 193.634 106.287 189.291C107.432 186.133 113.725 186.924 116.275 186.192C118.207 185.638 118.601 185.393 118.518 183.42C118.387 180.337 116.618 179.499 113.872 179.584C110.34 179.691 104.226 181.567 101.285 178.792C97.0854 174.829 103.313 172.054 106.471 171.515C109.776 170.952 114.197 171.465 114.96 167.377C115.687 163.478 113.628 158.76 112.019 155.327C110.463 152.006 108.335 147.773 105.087 145.779C100.503 142.966 94.8487 144.506 91.0234 147.786ZM130.782 221.154C126.621 222.086 124.227 227.499 123.744 231.283C123.277 234.944 123.595 240.169 126.282 242.982C129.808 246.674 135.956 246.425 139.751 249.89C141.432 241.552 144.541 233.528 148.625 226.077C145.4 225.19 142.257 224.042 139.077 223.012C136.75 222.26 133.28 220.594 130.782 221.154ZM397.856 239.117C398.79 239.914 399.085 240.156 399.326 241.407C397.11 241.547 397.777 240.836 397.856 239.117ZM419.826 179.807C423.288 179.897 424.907 181.017 427.685 182.674C429.664 183.856 432.066 182.584 432.066 185.586C437.718 181.148 448.257 192.606 452.219 195.608C456.398 198.773 460.513 202.5 460.975 208.149C461.113 209.822 460.766 211.537 461.017 213.203C461.207 214.458 462.002 215.712 461.867 217.013C461.707 218.522 460.43 219.404 460.136 220.823C460.02 221.384 460.418 222.513 460.171 222.967C457.637 227.607 454.391 231.414 448.832 231.873C443.991 232.273 438.642 230.547 435.113 227.171C431.983 224.178 430.116 219.691 429.305 215.496C429.164 214.77 429.431 213.107 429.192 212.494C428.844 211.599 428.321 211.584 427.889 210.86C426.745 208.941 425.103 205.325 426.588 203.216C422.928 204.042 420.146 196.207 418.78 193.922C417.755 192.211 415.286 190.871 414.6 189.207C413.66 186.924 417.038 185.945 415.868 184.355C415.242 183.504 411.879 184.083 412.209 181.951C412.515 179.978 418.504 179.772 419.826 179.807ZM490.733 219.466C490.767 219.508 490.8 219.533 490.835 219.542V219.541L490.823 219.531L490.733 219.466ZM481.07 202.381C481.388 202.109 483.088 200.389 483.288 201.679C483.452 202.736 481.579 202.381 481.07 202.381ZM322.353 68.3884C318.662 68.6136 315.371 72.5946 312.622 74.6846C308.516 77.8046 303.665 80.095 298.826 81.8267C293.194 83.8408 287.405 85.6336 281.622 87.1618C275.757 88.7125 269.648 89.0297 263.801 90.6407C266.694 95.9302 269.587 101.221 272.481 106.511C273.749 104.766 273.316 102.796 275.404 101.542C276.853 100.671 278.95 100.552 280.588 100.23C285.149 99.3333 290.153 98.5394 294.782 99.4671C297.768 100.066 301.092 102.363 298.263 105.571C296.478 107.596 292.636 107.076 292.322 110.291C292.022 113.371 295.17 116.017 294.441 119.256C293.416 123.809 288.863 122.446 286.839 119.502C285.033 116.878 285.718 112.21 282.93 110.318C281.268 109.189 276.823 108.782 275.032 109.748C278.323 115.816 284.719 123.298 280.967 130.552C279.814 132.78 277.295 133.63 278.984 135.82C280.931 138.345 286.549 140.426 289.54 139.653C292.341 138.93 295.549 135.777 298.699 137.337C301.674 138.81 299.566 141.31 299.829 143.623C300.62 150.589 314.921 146.615 318.803 145.691C322.698 144.764 326.762 142.521 330.783 142.429C334.575 142.341 338.095 144.167 341.1 146.306C343.35 147.908 347.094 152.594 349.948 152.75C352.812 152.907 356.871 148.671 359.398 147.389C363.932 145.088 368.888 144.423 373.693 142.889C374.456 142.646 377.789 141.961 377.849 140.849C377.906 139.781 373.967 137.443 373.297 136.932C367.184 132.269 362.707 125.84 356.347 121.472C353.512 119.525 350.449 118.152 347.136 117.276C345.298 116.79 340.291 116.134 340.159 113.515C348.98 112.039 349.2 101.044 345.48 94.8098C343.114 90.845 339.444 88.9593 334.808 89.812C328.09 91.0485 326.861 95.9612 325.323 101.791C319.833 98.8071 313.849 91.5004 313.523 85.0618C313.161 77.9036 320.854 74.8254 322.353 68.3884ZM486.234 116.496C495.49 118.211 504.543 120.498 513.456 123.536C518.946 125.408 526.933 127.017 531.681 130.529C533.066 131.555 534.812 133.811 533.547 135.614C532.458 137.168 529.789 136.75 528.213 136.508C521.047 135.407 514.027 132.411 506.938 130.795C488.096 126.502 468.767 124.485 449.517 123.111C444.209 122.732 438.897 122.405 433.588 122.032C429.167 121.722 424.309 121.862 419.98 120.863C416.566 120.074 415.716 117.568 418.272 114.746C420.765 111.996 424.945 112.425 428.284 111.923C447.712 110.655 467.154 112.959 486.234 116.496ZM454.036 94.0337C460.334 96.2018 452.973 97.2356 450.218 97.0081C449.284 96.9315 436.965 95.7105 436.965 96.0888C434.506 96.0888 428.001 97.9676 426.235 95.4838C424.338 92.8166 432.458 91.8803 434.099 91.7619C440.409 91.3077 447.971 91.9468 454.036 94.0337Z" fill="black"/>
</svg>
