<svg width="148" height="148" viewBox="0 0 148 148" fill="none" xmlns="http://www.w3.org/2000/svg">
<path d="M98.1117 76.2816H127.033C126.54 105.08 120.867 109.828 103.168 120.312C101.133 121.545 100.455 124.135 101.688 126.232C102.922 128.267 105.512 128.945 107.608 127.712C128.452 115.378 135.728 107.855 135.728 71.965V38.7266C135.728 28.1816 127.157 19.6716 116.673 19.6716H98.1734C87.3201 19.6716 79.1184 27.8733 79.1184 38.7266V57.2266C79.0567 68.08 87.2584 76.2816 98.1117 76.2816Z" fill="#292D32" fill-opacity="0.05"/>
<path d="M31.3884 76.2816H60.31C59.8167 105.08 54.1434 109.828 36.445 120.312C34.41 121.545 33.7317 124.135 34.965 126.232C36.1984 128.267 38.7884 128.945 40.885 127.712C61.7284 115.378 69.005 107.855 69.005 71.965V38.7266C69.005 28.1816 60.4334 19.6716 49.95 19.6716H31.45C20.535 19.6716 12.3334 27.8733 12.3334 38.7266V57.2266C12.3334 68.08 20.535 76.2816 31.3884 76.2816Z" fill="#292D32" fill-opacity="0.05"/>
</svg>
