<svg width="148" height="148" viewBox="0 0 148 148" fill="none" xmlns="http://www.w3.org/2000/svg">
<path d="M49.8883 71.7184L20.9667 71.7184C21.46 42.92 27.1333 38.1717 44.8317 27.6884C46.8667 26.455 47.545 23.865 46.3117 21.7684C45.0783 19.7334 42.4883 19.055 40.3917 20.2884C19.5483 32.6217 12.2717 40.145 12.2717 76.035L12.2717 109.273C12.2717 119.818 20.8433 128.328 31.3267 128.328L49.8267 128.328C60.68 128.328 68.8817 120.127 68.8817 109.273L68.8817 90.7734C68.9433 79.92 60.7417 71.7184 49.8883 71.7184Z" fill="#292D32" fill-opacity="0.05"/>
<path d="M116.612 71.7184L87.69 71.7184C88.1833 42.92 93.8567 38.1717 111.555 27.6884C113.59 26.455 114.268 23.865 113.035 21.7684C111.802 19.7334 109.212 19.055 107.115 20.2884C86.2717 32.6217 78.995 40.145 78.995 76.035L78.995 109.273C78.995 119.818 87.5667 128.328 98.05 128.328L116.55 128.328C127.465 128.328 135.667 120.127 135.667 109.273L135.667 90.7734C135.667 79.92 127.465 71.7184 116.612 71.7184Z" fill="#292D32" fill-opacity="0.05"/>
</svg>
