<svg width="32" height="32" viewBox="0 0 32 32" fill="none" xmlns="http://www.w3.org/2000/svg">
<path d="M24.0934 13.7599C23.84 13.7599 23.5867 13.6666 23.3867 13.4666L16 6.07992L8.61337 13.4666C8.2267 13.8533 7.5867 13.8533 7.20003 13.4666C6.81337 13.0799 6.81337 12.4399 7.20003 12.0533L15.2934 3.95992C15.68 3.57326 16.32 3.57326 16.7067 3.95992L24.8 12.0533C25.1867 12.4399 25.1867 13.0799 24.8 13.4666C24.6134 13.6666 24.3467 13.7599 24.0934 13.7599Z" fill="#292D32"/>
<path d="M16 28.3336C15.4533 28.3336 15 27.8802 15 27.3336V4.89355C15 4.34689 15.4533 3.89355 16 3.89355C16.5467 3.89355 17 4.34689 17 4.89355V27.3336C17 27.8802 16.5467 28.3336 16 28.3336Z" fill="#292D32"/>
</svg>
