<svg class="black-color" background-color="black" color="#000000" width="20" height="20" viewBox="0 -3 20 20" fill="black"  xmlns="http://www.w3.org/2000/svg">
<path d="M7.42501 17.2248C7.26668 17.2248 7.10834 17.1664 6.98334 17.0414C6.74168 16.7998 6.74168 16.3998 6.98334 16.1581L12.4167 10.7248C12.8167 10.3248 12.8167 9.67477 12.4167 9.27477L6.98334 3.84144C6.74168 3.59977 6.74168 3.19977 6.98334 2.95811C7.22501 2.71644 7.62501 2.71644 7.86668 2.95811L13.3 8.39144C13.725 8.81644 13.9667 9.39144 13.9667 9.99977C13.9667 10.6081 13.7333 11.1831 13.3 11.6081L7.86668 17.0414C7.74168 17.1581 7.58334 17.2248 7.42501 17.2248Z" fill="#F9F9F9"/>
</svg>
